<mxfile host="app.diagrams.net" agent="Mozilla/5.0 (Macintosh; Intel Mac OS X 10_15_7) AppleWebKit/537.36 (KHTML, like Gecko) Chrome/134.0.0.0 Safari/537.36" version="26.1.1">
  <diagram name="stream.collect()" id="rcgeWYM-mvE-A4V8VGFN">
    <mxGraphModel dx="492" dy="277" grid="1" gridSize="10" guides="1" tooltips="1" connect="1" arrows="1" fold="1" page="1" pageScale="1" pageWidth="850" pageHeight="1100" math="0" shadow="0">
      <root>
        <mxCell id="0" />
        <mxCell id="1" parent="0" />
        <mxCell id="j4DxAY6z9JmrXfte90BX-1" value="&lt;b style=&quot;&quot;&gt;&lt;font style=&quot;font-size: 16px;&quot;&gt;What happen inside the Collector when calling stream.collect() ?&lt;/font&gt;&lt;/b&gt;" style="rounded=0;whiteSpace=wrap;html=1;dashed=1;fillColor=none;align=left;verticalAlign=bottom;spacingRight=5;fontSize=14;spacingBottom=0;spacingLeft=5;" vertex="1" parent="1">
          <mxGeometry x="190" y="200" width="640" height="360" as="geometry" />
        </mxCell>
        <mxCell id="j4DxAY6z9JmrXfte90BX-2" value="R == Collection&amp;lt;T&amp;gt;" style="rounded=1;whiteSpace=wrap;html=1;fontSize=12;fillColor=#dae8fc;strokeColor=#6c8ebf;" vertex="1" parent="1">
          <mxGeometry x="870" y="10" width="120" height="40" as="geometry" />
        </mxCell>
        <mxCell id="j4DxAY6z9JmrXfte90BX-3" style="edgeStyle=orthogonalEdgeStyle;rounded=0;orthogonalLoop=1;jettySize=auto;html=1;exitX=0.5;exitY=0;exitDx=0;exitDy=0;exitPerimeter=0;entryX=0;entryY=0.5;entryDx=0;entryDy=0;fontSize=12;" edge="1" parent="1" source="j4DxAY6z9JmrXfte90BX-7" target="j4DxAY6z9JmrXfte90BX-2">
          <mxGeometry relative="1" as="geometry" />
        </mxCell>
        <mxCell id="j4DxAY6z9JmrXfte90BX-4" style="edgeStyle=orthogonalEdgeStyle;rounded=1;orthogonalLoop=1;jettySize=auto;html=1;exitX=0.5;exitY=0;exitDx=0;exitDy=0;exitPerimeter=0;entryX=0;entryY=0.5;entryDx=0;entryDy=0;fontSize=12;curved=0;" edge="1" parent="1" source="j4DxAY6z9JmrXfte90BX-7" target="j4DxAY6z9JmrXfte90BX-38">
          <mxGeometry relative="1" as="geometry" />
        </mxCell>
        <mxCell id="j4DxAY6z9JmrXfte90BX-5" style="edgeStyle=orthogonalEdgeStyle;rounded=1;orthogonalLoop=1;jettySize=auto;html=1;exitX=0.5;exitY=0;exitDx=0;exitDy=0;exitPerimeter=0;entryX=0;entryY=0.5;entryDx=0;entryDy=0;fontSize=12;curved=0;" edge="1" parent="1" source="j4DxAY6z9JmrXfte90BX-7" target="j4DxAY6z9JmrXfte90BX-41">
          <mxGeometry relative="1" as="geometry" />
        </mxCell>
        <mxCell id="j4DxAY6z9JmrXfte90BX-6" style="edgeStyle=orthogonalEdgeStyle;rounded=1;orthogonalLoop=1;jettySize=auto;html=1;exitX=0.5;exitY=0;exitDx=0;exitDy=0;exitPerimeter=0;entryX=0;entryY=0.5;entryDx=0;entryDy=0;curved=0;" edge="1" parent="1" source="j4DxAY6z9JmrXfte90BX-7" target="j4DxAY6z9JmrXfte90BX-45">
          <mxGeometry relative="1" as="geometry" />
        </mxCell>
        <mxCell id="j4DxAY6z9JmrXfte90BX-7" value="collect()" style="shape=cylinder3;whiteSpace=wrap;html=1;boundedLbl=1;backgroundOutline=1;size=15;direction=south;align=left;spacingLeft=10;fontSize=12;" vertex="1" parent="1">
          <mxGeometry x="410" width="360" height="60" as="geometry" />
        </mxCell>
        <mxCell id="j4DxAY6z9JmrXfte90BX-8" style="edgeStyle=orthogonalEdgeStyle;rounded=0;orthogonalLoop=1;jettySize=auto;html=1;exitX=1;exitY=0.5;exitDx=0;exitDy=0;entryX=0.5;entryY=1;entryDx=0;entryDy=0;entryPerimeter=0;fontSize=12;" edge="1" parent="1" source="j4DxAY6z9JmrXfte90BX-44" target="j4DxAY6z9JmrXfte90BX-7">
          <mxGeometry relative="1" as="geometry">
            <mxPoint x="330" y="30" as="sourcePoint" />
          </mxGeometry>
        </mxCell>
        <mxCell id="j4DxAY6z9JmrXfte90BX-9" value="&amp;lt;A&amp;gt;&lt;div&gt;mutable&lt;div&gt;&lt;div&gt;container&lt;/div&gt;&lt;/div&gt;&lt;/div&gt;" style="shape=cylinder3;whiteSpace=wrap;html=1;boundedLbl=1;backgroundOutline=1;size=15;fontSize=12;fillColor=#fff2cc;strokeColor=#d6b656;" vertex="1" parent="1">
          <mxGeometry x="220" y="310" width="80" height="100" as="geometry" />
        </mxCell>
        <mxCell id="j4DxAY6z9JmrXfte90BX-10" style="edgeStyle=orthogonalEdgeStyle;rounded=1;orthogonalLoop=1;jettySize=auto;html=1;exitX=1;exitY=1;exitDx=0;exitDy=-15;exitPerimeter=0;entryX=0.5;entryY=0;entryDx=0;entryDy=0;fontSize=12;curved=0;" edge="1" parent="1" source="j4DxAY6z9JmrXfte90BX-7" target="j4DxAY6z9JmrXfte90BX-13">
          <mxGeometry relative="1" as="geometry">
            <mxPoint x="380" y="140" as="targetPoint" />
          </mxGeometry>
        </mxCell>
        <mxCell id="j4DxAY6z9JmrXfte90BX-11" value="x1" style="edgeLabel;html=1;align=center;verticalAlign=middle;resizable=0;points=[];fontSize=12;" vertex="1" connectable="0" parent="j4DxAY6z9JmrXfte90BX-10">
          <mxGeometry x="-0.1607" relative="1" as="geometry">
            <mxPoint as="offset" />
          </mxGeometry>
        </mxCell>
        <mxCell id="j4DxAY6z9JmrXfte90BX-12" style="edgeStyle=orthogonalEdgeStyle;rounded=0;orthogonalLoop=1;jettySize=auto;html=1;exitX=0.5;exitY=1;exitDx=0;exitDy=0;fontSize=12;" edge="1" parent="1" source="j4DxAY6z9JmrXfte90BX-13" target="j4DxAY6z9JmrXfte90BX-9">
          <mxGeometry relative="1" as="geometry" />
        </mxCell>
        <mxCell id="j4DxAY6z9JmrXfte90BX-13" value="Supplier" style="rounded=1;whiteSpace=wrap;html=1;fontSize=12;fillColor=#f8cecc;strokeColor=#b85450;" vertex="1" parent="1">
          <mxGeometry x="210" y="220" width="100" height="40" as="geometry" />
        </mxCell>
        <mxCell id="j4DxAY6z9JmrXfte90BX-14" value="Element" style="ellipse;whiteSpace=wrap;html=1;aspect=fixed;fontSize=12;fillColor=#e1d5e7;strokeColor=#9673a6;" vertex="1" parent="1">
          <mxGeometry x="480" y="5" width="50" height="50" as="geometry" />
        </mxCell>
        <mxCell id="j4DxAY6z9JmrXfte90BX-15" value="Element" style="ellipse;whiteSpace=wrap;html=1;aspect=fixed;fontSize=12;fillColor=#e1d5e7;strokeColor=#9673a6;" vertex="1" parent="1">
          <mxGeometry x="540" y="5" width="50" height="50" as="geometry" />
        </mxCell>
        <mxCell id="j4DxAY6z9JmrXfte90BX-16" value="Element" style="ellipse;whiteSpace=wrap;html=1;aspect=fixed;fontSize=12;fillColor=#e1d5e7;strokeColor=#9673a6;" vertex="1" parent="1">
          <mxGeometry x="600" y="5" width="50" height="50" as="geometry" />
        </mxCell>
        <mxCell id="j4DxAY6z9JmrXfte90BX-17" value="" style="edgeStyle=orthogonalEdgeStyle;rounded=0;orthogonalLoop=1;jettySize=auto;html=1;exitX=1;exitY=0;exitDx=0;exitDy=172.5;exitPerimeter=0;fontSize=12;" edge="1" parent="1" source="j4DxAY6z9JmrXfte90BX-7" target="j4DxAY6z9JmrXfte90BX-21">
          <mxGeometry relative="1" as="geometry">
            <mxPoint x="597.6153846153845" y="230" as="targetPoint" />
            <mxPoint x="598" y="60" as="sourcePoint" />
          </mxGeometry>
        </mxCell>
        <mxCell id="j4DxAY6z9JmrXfte90BX-18" value="x4" style="edgeLabel;html=1;align=center;verticalAlign=middle;resizable=0;points=[];fontSize=12;" vertex="1" connectable="0" parent="j4DxAY6z9JmrXfte90BX-17">
          <mxGeometry x="0.0641" relative="1" as="geometry">
            <mxPoint as="offset" />
          </mxGeometry>
        </mxCell>
        <mxCell id="j4DxAY6z9JmrXfte90BX-19" style="edgeStyle=orthogonalEdgeStyle;rounded=1;orthogonalLoop=1;jettySize=auto;html=1;exitX=0.5;exitY=1;exitDx=0;exitDy=0;entryX=1;entryY=0.5;entryDx=0;entryDy=0;fontSize=12;curved=0;" edge="1" parent="1" source="j4DxAY6z9JmrXfte90BX-21" target="j4DxAY6z9JmrXfte90BX-43">
          <mxGeometry relative="1" as="geometry">
            <mxPoint x="550" y="340.0000000000001" as="targetPoint" />
            <Array as="points">
              <mxPoint x="595" y="360" />
            </Array>
          </mxGeometry>
        </mxCell>
        <mxCell id="j4DxAY6z9JmrXfte90BX-20" value="&amp;lt;T&amp;gt; current" style="edgeLabel;html=1;align=center;verticalAlign=middle;resizable=0;points=[];fontSize=12;" vertex="1" connectable="0" parent="j4DxAY6z9JmrXfte90BX-19">
          <mxGeometry x="-0.2161" relative="1" as="geometry">
            <mxPoint y="-11" as="offset" />
          </mxGeometry>
        </mxCell>
        <mxCell id="j4DxAY6z9JmrXfte90BX-21" value="Element" style="ellipse;whiteSpace=wrap;html=1;aspect=fixed;fontSize=12;fillColor=#e1d5e7;strokeColor=#9673a6;" vertex="1" parent="1">
          <mxGeometry x="570" y="130" width="50" height="50" as="geometry" />
        </mxCell>
        <mxCell id="j4DxAY6z9JmrXfte90BX-22" style="edgeStyle=orthogonalEdgeStyle;rounded=0;orthogonalLoop=1;jettySize=auto;html=1;entryX=0.5;entryY=0;entryDx=0;entryDy=0;fontSize=12;" edge="1" parent="1" source="j4DxAY6z9JmrXfte90BX-23" target="j4DxAY6z9JmrXfte90BX-43">
          <mxGeometry relative="1" as="geometry">
            <mxPoint x="465" y="300.0000000000001" as="targetPoint" />
          </mxGeometry>
        </mxCell>
        <mxCell id="j4DxAY6z9JmrXfte90BX-23" value="Accumulator" style="rounded=1;whiteSpace=wrap;html=1;fontSize=12;fillColor=#f8cecc;strokeColor=#b85450;" vertex="1" parent="1">
          <mxGeometry x="390" y="220" width="120" height="40" as="geometry" />
        </mxCell>
        <mxCell id="j4DxAY6z9JmrXfte90BX-24" style="edgeStyle=orthogonalEdgeStyle;rounded=0;orthogonalLoop=1;jettySize=auto;html=1;entryX=1;entryY=0.5;entryDx=0;entryDy=0;entryPerimeter=0;exitX=0;exitY=0.5;exitDx=0;exitDy=0;fontSize=12;" edge="1" parent="1" source="j4DxAY6z9JmrXfte90BX-43" target="j4DxAY6z9JmrXfte90BX-9">
          <mxGeometry relative="1" as="geometry">
            <mxPoint x="380" y="340" as="sourcePoint" />
          </mxGeometry>
        </mxCell>
        <mxCell id="j4DxAY6z9JmrXfte90BX-25" style="edgeStyle=orthogonalEdgeStyle;rounded=1;orthogonalLoop=1;jettySize=auto;html=1;exitX=0.5;exitY=1;exitDx=0;exitDy=0;exitPerimeter=0;entryX=0;entryY=0.25;entryDx=0;entryDy=0;fontSize=12;curved=0;" edge="1" parent="1" source="j4DxAY6z9JmrXfte90BX-9" target="j4DxAY6z9JmrXfte90BX-29">
          <mxGeometry relative="1" as="geometry">
            <mxPoint x="730" y="250" as="targetPoint" />
          </mxGeometry>
        </mxCell>
        <mxCell id="j4DxAY6z9JmrXfte90BX-26" value="Finisher" style="rounded=1;whiteSpace=wrap;html=1;fontSize=12;fillColor=#f8cecc;strokeColor=#b85450;" vertex="1" parent="1">
          <mxGeometry x="700" y="350" width="110" height="40" as="geometry" />
        </mxCell>
        <mxCell id="j4DxAY6z9JmrXfte90BX-27" style="edgeStyle=orthogonalEdgeStyle;rounded=0;orthogonalLoop=1;jettySize=auto;html=1;exitX=0.5;exitY=0;exitDx=0;exitDy=0;entryX=0.5;entryY=1;entryDx=0;entryDy=0;entryPerimeter=0;fontSize=12;" edge="1" parent="1" source="j4DxAY6z9JmrXfte90BX-26" target="j4DxAY6z9JmrXfte90BX-39">
          <mxGeometry relative="1" as="geometry">
            <mxPoint x="755" y="190" as="targetPoint" />
          </mxGeometry>
        </mxCell>
        <mxCell id="j4DxAY6z9JmrXfte90BX-28" style="edgeStyle=orthogonalEdgeStyle;rounded=0;orthogonalLoop=1;jettySize=auto;html=1;exitX=1;exitY=0.5;exitDx=0;exitDy=0;entryX=0;entryY=0.5;entryDx=0;entryDy=0;entryPerimeter=0;fontSize=12;" edge="1" parent="1" source="j4DxAY6z9JmrXfte90BX-29" target="j4DxAY6z9JmrXfte90BX-37">
          <mxGeometry relative="1" as="geometry">
            <mxPoint x="660" y="480" as="targetPoint" />
          </mxGeometry>
        </mxCell>
        <mxCell id="j4DxAY6z9JmrXfte90BX-29" value="Combiner" style="rounded=1;whiteSpace=wrap;html=1;fontSize=12;fillColor=#f8cecc;strokeColor=#b85450;" vertex="1" parent="1">
          <mxGeometry x="470" y="460" width="100" height="40" as="geometry" />
        </mxCell>
        <mxCell id="j4DxAY6z9JmrXfte90BX-30" value="" style="group;fontSize=12;" vertex="1" connectable="0" parent="1">
          <mxGeometry y="380" width="160" height="180" as="geometry" />
        </mxCell>
        <mxCell id="j4DxAY6z9JmrXfte90BX-31" value="" style="rounded=0;whiteSpace=wrap;html=1;dashed=1;align=left;verticalAlign=top;spacingLeft=5;fontSize=12;" vertex="1" parent="j4DxAY6z9JmrXfte90BX-30">
          <mxGeometry width="140" height="160" as="geometry" />
        </mxCell>
        <mxCell id="j4DxAY6z9JmrXfte90BX-32" value="" style="rounded=0;whiteSpace=wrap;html=1;dashed=1;align=left;verticalAlign=top;spacingLeft=5;fontSize=12;" vertex="1" parent="j4DxAY6z9JmrXfte90BX-30">
          <mxGeometry x="10" y="10" width="140" height="160" as="geometry" />
        </mxCell>
        <mxCell id="j4DxAY6z9JmrXfte90BX-33" value="Other threads" style="rounded=0;whiteSpace=wrap;html=1;dashed=1;align=left;verticalAlign=top;spacingLeft=5;fontSize=12;" vertex="1" parent="j4DxAY6z9JmrXfte90BX-30">
          <mxGeometry x="20" y="20" width="140" height="160" as="geometry" />
        </mxCell>
        <mxCell id="j4DxAY6z9JmrXfte90BX-34" value="&amp;lt;A&amp;gt;&lt;div&gt;mutable&lt;div&gt;&lt;div&gt;container&lt;/div&gt;&lt;/div&gt;&lt;/div&gt;" style="shape=cylinder3;whiteSpace=wrap;html=1;boundedLbl=1;backgroundOutline=1;size=15;fontSize=12;fillColor=#fff2cc;strokeColor=#d6b656;" vertex="1" parent="j4DxAY6z9JmrXfte90BX-30">
          <mxGeometry x="50" y="60" width="80" height="100" as="geometry" />
        </mxCell>
        <mxCell id="j4DxAY6z9JmrXfte90BX-35" style="edgeStyle=orthogonalEdgeStyle;rounded=1;orthogonalLoop=1;jettySize=auto;html=1;exitX=1;exitY=0.5;exitDx=0;exitDy=0;entryX=0;entryY=0.75;entryDx=0;entryDy=0;fontSize=12;exitPerimeter=0;curved=0;" edge="1" parent="1" source="j4DxAY6z9JmrXfte90BX-34" target="j4DxAY6z9JmrXfte90BX-29">
          <mxGeometry relative="1" as="geometry">
            <Array as="points">
              <mxPoint x="130" y="490" />
            </Array>
          </mxGeometry>
        </mxCell>
        <mxCell id="j4DxAY6z9JmrXfte90BX-36" style="edgeStyle=orthogonalEdgeStyle;rounded=0;orthogonalLoop=1;jettySize=auto;html=1;exitX=0.5;exitY=0;exitDx=0;exitDy=0;exitPerimeter=0;entryX=0.5;entryY=1;entryDx=0;entryDy=0;fontSize=12;" edge="1" parent="1" source="j4DxAY6z9JmrXfte90BX-37" target="j4DxAY6z9JmrXfte90BX-26">
          <mxGeometry relative="1" as="geometry" />
        </mxCell>
        <mxCell id="j4DxAY6z9JmrXfte90BX-37" value="&amp;lt;A&amp;gt;&lt;div&gt;combined&lt;div&gt;&lt;div&gt;container&lt;/div&gt;&lt;/div&gt;&lt;/div&gt;" style="shape=cylinder3;whiteSpace=wrap;html=1;boundedLbl=1;backgroundOutline=1;size=15;fontSize=12;fillColor=#fff2cc;strokeColor=#d6b656;" vertex="1" parent="1">
          <mxGeometry x="715" y="430" width="80" height="100" as="geometry" />
        </mxCell>
        <mxCell id="j4DxAY6z9JmrXfte90BX-38" value="R == Optional&amp;lt;T&amp;gt;" style="rounded=1;whiteSpace=wrap;html=1;fontSize=12;fillColor=#dae8fc;strokeColor=#6c8ebf;" vertex="1" parent="1">
          <mxGeometry x="870" y="60" width="120" height="40" as="geometry" />
        </mxCell>
        <mxCell id="j4DxAY6z9JmrXfte90BX-39" value="&amp;lt;R&amp;gt;&lt;br&gt;&lt;div&gt;result&lt;/div&gt;&lt;div&gt;&lt;span style=&quot;background-color: transparent; color: light-dark(rgb(0, 0, 0), rgb(255, 255, 255));&quot;&gt;container&lt;/span&gt;&lt;/div&gt;" style="shape=cylinder3;whiteSpace=wrap;html=1;boundedLbl=1;backgroundOutline=1;size=15;fontSize=12;fillColor=#fff2cc;strokeColor=#d6b656;" vertex="1" parent="1">
          <mxGeometry x="717.5" y="220" width="75" height="90" as="geometry" />
        </mxCell>
        <mxCell id="j4DxAY6z9JmrXfte90BX-40" style="edgeStyle=orthogonalEdgeStyle;rounded=0;orthogonalLoop=1;jettySize=auto;html=1;exitX=0.5;exitY=0;exitDx=0;exitDy=0;exitPerimeter=0;entryX=1;entryY=0;entryDx=0;entryDy=15;entryPerimeter=0;fontSize=12;" edge="1" parent="1" source="j4DxAY6z9JmrXfte90BX-39" target="j4DxAY6z9JmrXfte90BX-7">
          <mxGeometry relative="1" as="geometry" />
        </mxCell>
        <mxCell id="j4DxAY6z9JmrXfte90BX-41" value="R &amp;lt;&amp;gt; T" style="rounded=1;whiteSpace=wrap;html=1;fontSize=12;fillColor=#dae8fc;strokeColor=#6c8ebf;" vertex="1" parent="1">
          <mxGeometry x="870" y="160" width="120" height="40" as="geometry" />
        </mxCell>
        <mxCell id="j4DxAY6z9JmrXfte90BX-42" value="Element" style="ellipse;whiteSpace=wrap;html=1;aspect=fixed;fontSize=12;fillColor=#e1d5e7;strokeColor=#9673a6;" vertex="1" parent="1">
          <mxGeometry x="660" y="5" width="50" height="50" as="geometry" />
        </mxCell>
        <mxCell id="j4DxAY6z9JmrXfte90BX-43" value="accumulate&lt;div&gt;&lt;div&gt;&lt;div&gt;&lt;div&gt;e.g.&lt;/div&gt;&lt;div&gt;List.add(current)&lt;/div&gt;&lt;div&gt;Map.put(current.key, current)&lt;/div&gt;&lt;/div&gt;&lt;/div&gt;&lt;/div&gt;" style="shape=parallelogram;perimeter=parallelogramPerimeter;whiteSpace=wrap;html=1;fixedSize=1;fontSize=12;rounded=1;" vertex="1" parent="1">
          <mxGeometry x="345" y="320" width="210" height="80" as="geometry" />
        </mxCell>
        <mxCell id="j4DxAY6z9JmrXfte90BX-44" value="Stream&amp;lt;T&amp;gt;" style="rounded=1;whiteSpace=wrap;html=1;fontSize=12;fillColor=#d5e8d4;strokeColor=#82b366;" vertex="1" parent="1">
          <mxGeometry x="210" y="10" width="110" height="40" as="geometry" />
        </mxCell>
        <mxCell id="j4DxAY6z9JmrXfte90BX-45" value="R == T" style="rounded=1;whiteSpace=wrap;html=1;fontSize=12;fillColor=#dae8fc;strokeColor=#6c8ebf;" vertex="1" parent="1">
          <mxGeometry x="870" y="110" width="120" height="40" as="geometry" />
        </mxCell>
      </root>
    </mxGraphModel>
  </diagram>
</mxfile>
